<?xml version="1.0" encoding="UTF-8" standalone="no"?>
<!DOCTYPE svg PUBLIC "-//W3C//DTD SVG 1.1//EN"
 "http://www.w3.org/Graphics/SVG/1.1/DTD/svg11.dtd">
<!-- Generated by graphviz version 2.36.0 (20140111.2315)
 -->
<!-- Title: openfpm Pages: 1 -->
<svg width="242pt" height="404pt"
 viewBox="0.00 0.00 242.00 404.00" xmlns="http://www.w3.org/2000/svg" xmlns:xlink="http://www.w3.org/1999/xlink">
<g id="graph0" class="graph" transform="scale(1 1) rotate(0) translate(4 400)">
<title>openfpm</title>
<polygon fill="white" stroke="none" points="-4,4 -4,-400 238,-400 238,4 -4,4"/>
<!-- API -->
<g id="node1" class="node"><title>API</title>
<polygon fill="none" stroke="blue" points="162,-396 108,-396 108,-360 162,-360 162,-396"/>
<text text-anchor="middle" x="135" y="-374.3" font-family="Times,serif" font-size="14.00">API</text>
</g>
<!-- Core -->
<g id="node2" class="node"><title>Core</title>
<ellipse fill="none" stroke="red" cx="135" cy="-306" rx="27.4223" ry="18"/>
<text text-anchor="middle" x="135" y="-302.3" font-family="Times,serif" font-size="14.00">Core</text>
</g>
<!-- API&#45;&gt;Core -->
<g id="edge1" class="edge"><title>API&#45;&gt;Core</title>
<path fill="none" stroke="blue" d="M135,-359.697C135,-351.983 135,-342.712 135,-334.112"/>
<polygon fill="blue" stroke="blue" points="135,-334.104 139.5,-324.104 135,-329.104 135,-324.104 135,-324.104 135,-324.104 135,-329.104 130.5,-324.104 135,-334.104 135,-334.104"/>
</g>
<!-- pdata -->
<g id="node3" class="node"><title>pdata</title>
<ellipse fill="none" stroke="red" cx="135" cy="-234" rx="29.3479" ry="18"/>
<text text-anchor="middle" x="135" y="-230.3" font-family="Times,serif" font-size="14.00">pdata</text>
</g>
<!-- Core&#45;&gt;pdata -->
<g id="edge2" class="edge"><title>Core&#45;&gt;pdata</title>
<path fill="none" stroke="black" d="M135,-287.697C135,-279.983 135,-270.712 135,-262.112"/>
<polygon fill="black" stroke="black" points="138.5,-262.104 135,-252.104 131.5,-262.104 138.5,-262.104"/>
</g>
<!-- data -->
<g id="node4" class="node"><title>data</title>
<ellipse fill="none" stroke="red" cx="171" cy="-90" rx="27" ry="18"/>
<text text-anchor="middle" x="171" y="-86.3" font-family="Times,serif" font-size="14.00">data</text>
</g>
<!-- pdata&#45;&gt;data -->
<g id="edge7" class="edge"><title>pdata&#45;&gt;data</title>
<path fill="none" stroke="black" d="M146.477,-217.152C153.142,-207.042 160.993,-193.369 165,-180 171.03,-159.881 172.355,-136.101 172.268,-118.185"/>
<polygon fill="black" stroke="black" points="175.766,-118.058 172.069,-108.129 168.767,-118.197 175.766,-118.058"/>
</g>
<!-- Vcluster -->
<g id="node5" class="node"><title>Vcluster</title>
<ellipse fill="none" stroke="red" cx="116" cy="-162" rx="39.9464" ry="18"/>
<text text-anchor="middle" x="116" y="-158.3" font-family="Times,serif" font-size="14.00">Vcluster</text>
</g>
<!-- pdata&#45;&gt;Vcluster -->
<g id="edge6" class="edge"><title>pdata&#45;&gt;Vcluster</title>
<path fill="none" stroke="black" d="M130.401,-216.055C128.285,-208.261 125.723,-198.822 123.35,-190.079"/>
<polygon fill="black" stroke="black" points="126.686,-189.009 120.689,-180.275 119.931,-190.843 126.686,-189.009"/>
</g>
<!-- devices (Memory) -->
<g id="node6" class="node"><title>devices (Memory)</title>
<ellipse fill="none" stroke="red" cx="143" cy="-18" rx="76.5394" ry="18"/>
<text text-anchor="middle" x="143" y="-14.3" font-family="Times,serif" font-size="14.00">devices (Memory)</text>
</g>
<!-- data&#45;&gt;devices (Memory) -->
<g id="edge9" class="edge"><title>data&#45;&gt;devices (Memory)</title>
<path fill="none" stroke="black" d="M164.364,-72.411C161.134,-64.3352 157.172,-54.4312 153.542,-45.3547"/>
<polygon fill="black" stroke="black" points="156.746,-43.9411 149.782,-35.9562 150.247,-46.5409 156.746,-43.9411"/>
</g>
<!-- Vcluster&#45;&gt;data -->
<g id="edge8" class="edge"><title>Vcluster&#45;&gt;data</title>
<path fill="none" stroke="black" d="M128.756,-144.765C135.896,-135.677 144.919,-124.194 152.791,-114.175"/>
<polygon fill="black" stroke="black" points="155.64,-116.215 159.066,-106.189 150.135,-111.89 155.64,-116.215"/>
</g>
<!-- Vcluster&#45;&gt;devices (Memory) -->
<g id="edge13" class="edge"><title>Vcluster&#45;&gt;devices (Memory)</title>
<path fill="none" stroke="black" d="M119.257,-143.871C123.858,-119.67 132.312,-75.2108 137.791,-46.3932"/>
<polygon fill="black" stroke="black" points="141.302,-46.6671 139.732,-36.1893 134.425,-45.3594 141.302,-46.6671"/>
</g>
<!-- Numerics -->
<g id="node7" class="node"><title>Numerics</title>
<ellipse fill="none" stroke="black" cx="45" cy="-378" rx="45.244" ry="18"/>
<text text-anchor="middle" x="45" y="-374.3" font-family="Times,serif" font-size="14.00">Numerics</text>
</g>
<!-- Numerics&#45;&gt;Core -->
<g id="edge3" class="edge"><title>Numerics&#45;&gt;Core</title>
<path fill="none" stroke="black" d="M64.9739,-361.465C78.2208,-351.162 95.71,-337.559 109.896,-326.525"/>
<polygon fill="black" stroke="black" points="112.065,-329.272 117.81,-320.37 107.768,-323.747 112.065,-329.272"/>
</g>
<!-- Numerics&#45;&gt;pdata -->
<g id="edge4" class="edge"><title>Numerics&#45;&gt;pdata</title>
<path fill="none" stroke="black" d="M54.4171,-360.379C64.751,-342.335 82.0031,-312.778 98,-288 104.117,-278.525 111.134,-268.321 117.401,-259.421"/>
<polygon fill="black" stroke="black" points="120.422,-261.211 123.357,-251.031 114.714,-257.159 120.422,-261.211"/>
</g>
<!-- Numerics&#45;&gt;data -->
<g id="edge5" class="edge"><title>Numerics&#45;&gt;data</title>
<path fill="none" stroke="black" d="M41.4778,-359.947C33.9724,-318.759 20.6446,-212.223 67,-144 82.9448,-120.534 112.553,-106.883 136.113,-99.3298"/>
<polygon fill="black" stroke="black" points="137.193,-102.66 145.781,-96.4553 135.199,-95.9501 137.193,-102.66"/>
</g>
<!-- IO -->
<g id="node8" class="node"><title>IO</title>
<ellipse fill="none" stroke="black" cx="207" cy="-378" rx="27" ry="18"/>
<text text-anchor="middle" x="207" y="-374.3" font-family="Times,serif" font-size="14.00">IO</text>
</g>
<!-- IO&#45;&gt;Core -->
<g id="edge12" class="edge"><title>IO&#45;&gt;Core</title>
<path fill="none" stroke="black" d="M192.43,-362.834C182.25,-352.938 168.476,-339.546 156.969,-328.359"/>
<polygon fill="black" stroke="black" points="159.405,-325.846 149.796,-321.385 154.526,-330.865 159.405,-325.846"/>
</g>
<!-- IO&#45;&gt;pdata -->
<g id="edge11" class="edge"><title>IO&#45;&gt;pdata</title>
<path fill="none" stroke="black" d="M201.383,-360.121C195.03,-341.856 183.877,-312.112 171,-288 165.734,-278.139 159.054,-267.852 152.882,-258.994"/>
<polygon fill="black" stroke="black" points="155.608,-256.788 146.951,-250.68 149.91,-260.853 155.608,-256.788"/>
</g>
<!-- IO&#45;&gt;data -->
<g id="edge10" class="edge"><title>IO&#45;&gt;data</title>
<path fill="none" stroke="black" d="M205.948,-359.951C203.41,-321.325 196.17,-224.257 183,-144 181.604,-135.49 179.674,-126.301 177.771,-118.001"/>
<polygon fill="black" stroke="black" points="181.132,-117.004 175.416,-108.083 174.321,-118.621 181.132,-117.004"/>
</g>
</g>
</svg>
